999
DXF file: format-A3-for-E3.dxf
999
Pro/ENGINEER 2018070 by Parametric Technology Corporation
  0
SECTION
  2
HEADER
  9
$ACADVER
  1
AC1027
  9
$DWGCODEPAGE
  3
ANSI_1251
  9
$EXTMAX
 10
420.0
 20
297.0
 30
0.0
  9
$EXTMIN
 10
0.0
 20
0.0
 30
0.0
  9
$LIMMIN
 10
0.0
 20
0.0
  9
$LIMMAX
 10
420.0
 20
297.0
  9
$VIEWCTR
 10
210.0
 20
148.5
  9
$VIEWSIZE
 40
297.0
  9
$CLAYER
  8
0
  9
$LTSCALE
 40
23.1
  9
$CELTYPE
  6
BYLAYER
  9
$DIMSCALE
 40
1.0
  9
$DIMASZ
 40
3.0
  9
$DIMEXO
 40
0.0
  9
$DIMDLI
 40
15.96
  9
$DIMEXE
 40
1.5
  9
$DIMCEN
 40
3.78
  9
$DIMLFAC
 40
1.0
  9
$DIMBLK
  1
_FILLED
  9
$DIMALT
 70
0
  9
$DIMALTF
 40
25.4
  9
$DIMTXT
 40
3.5
  9
$DIMTOL
 70
1
  9
$DIMLIM
 70
0
  9
$DIMTFAC
 40
1.0
  9
$DIMTP
 40
0.05
  9
$DIMTM
 40
0.05
  9
$DIMGAP
 40
0.625
  9
$DIMDSEP
 70
44
  9
$AUNITS
 70
0
  9
$PDMODE
 70
3
  9
$PDSIZE
 40
1.0
  9
$HANDSEED
  5
2A1
  9
$TILEMODE
 70
1
  9
$MEASUREMENT
 70
1
  9
$INSUNITS
 70
4
  0
ENDSEC
  0
SECTION
  2
CLASSES
  0
CLASS
  1
ACDBDICTIONARYWDFLT
  2
AcDbDictionaryWithDefault
  3
AutoCAD 2000
 90
0
 91
1
280
0
281
0
  0
CLASS
  1
ACDBPLACEHOLDER
  2
AcDbPlaceHolder
  3
AutoCAD 2000
 90
0
 91
1
280
0
281
0
  0
CLASS
  1
LAYOUT
  2
AcDbLayout
  3
AutoCAD 2000
 90
0
 91
0
280
0
281
0
  0
CLASS
  1
TABLESTYLE
  2
AcDbTableStyle
  3
ObjectDBX Classes
 90
2047
 91
1
280
0
281
0
  0
CLASS
  1
ACAD_TABLE
  2
AcDbTable
  3
ObjectDBX Classes
 90
1025
 91
5
280
0
281
1
  0
ENDSEC
  0
SECTION
  2
TABLES
  0
TABLE
  2
VPORT
  5
8
100
AcDbSymbolTable
 70
2
  0
VPORT
  5
1F4
100
AcDbSymbolTableRecord
100
AcDbViewportTableRecord
  2
*ACTIVE
 70
0
 10
0.0
 20
0.0
 11
1.0
 21
1.0
 12
210.0
 22
148.5
 13
0.0
 23
0.0
 14
1.0
 24
1.0
 15
0.0
 25
0.0
 16
0.0
 26
0.0
 36
1.0
 17
0.0
 27
0.0
 37
0.0
 40
297.0
 41
1.4141414141
 42
50.0
 43
0.0
 44
0.0
 50
0.0
 51
0.0
 71
0
 72
100
 73
1
 74
1
 75
0
 76
0
 77
0
 78
0
  0
ENDTAB
  0
TABLE
  2
LTYPE
  5
5
100
AcDbSymbolTable
 70
6
  0
LTYPE
  5
14
100
AcDbSymbolTableRecord
100
AcDbLinetypeTableRecord
  2
BYBLOCK
 70
0
  3

 72
65
 73
0
 40
0.0
  0
LTYPE
  5
15
100
AcDbSymbolTableRecord
100
AcDbLinetypeTableRecord
  2
BYLAYER
 70
0
  3

 72
65
 73
0
 40
0.0
  0
LTYPE
  5
16
100
AcDbSymbolTableRecord
100
AcDbLinetypeTableRecord
  2
CONTINUOUS
 70
64
  3
Solid line
 72
65
 73
0
 40
0.0
  0
LTYPE
  5
1F5
100
AcDbSymbolTableRecord
100
AcDbLinetypeTableRecord
  2
CENTER
 70
64
  3
____ _ ____ _ ____ _ ____ _ ____ _ ____ _ ____
 72
65
 73
4
 40
0.6
 49
0.375
 74
0
 49
-0.075
 74
0
 49
0.075
 74
0
 49
-0.075
 74
0
  0
LTYPE
  5
1F6
100
AcDbSymbolTableRecord
100
AcDbLinetypeTableRecord
  2
HIDDEN
 70
64
  3
- - - - - - - - - - - - - - - - - - - -
 72
65
 73
2
 40
0.2
 49
0.1
 74
0
 49
-0.1
 74
0
  0
LTYPE
  5
1F7
100
AcDbSymbolTableRecord
100
AcDbLinetypeTableRecord
  2
PHANTOM
 70
64
  3
_____ _ _ _____ _ _ _____ _ _ _____
 72
65
 73
6
 40
0.8
 49
0.45
 74
0
 49
-0.05
 74
0
 49
0.1
 74
0
 49
-0.05
 74
0
 49
0.1
 74
0
 49
-0.05
 74
0
  0
LTYPE
  5
1F8
100
AcDbSymbolTableRecord
100
AcDbLinetypeTableRecord
  2
DOT
 70
64
  3
. . . . . . . . . . . . . . . . . . . .
 72
65
 73
2
 40
0.2
 49
0.1
 74
0
 49
-0.1
 74
0
  0
LTYPE
  5
1F9
100
AcDbSymbolTableRecord
100
AcDbLinetypeTableRecord
  2
DASHED
 70
64
  3
- - - - - - - - - - - - - - - - - - - -
 72
65
 73
2
 40
0.2
 49
0.1
 74
0
 49
-0.1
 74
0
  0
ENDTAB
  0
TABLE
  2
LAYER
  5
2
100
AcDbSymbolTable
 70
36
  0
LAYER
  5
10
100
AcDbSymbolTableRecord
100
AcDbLayerTableRecord
  2
0
 70
0
 62
7
  6
CONTINUOUS
370
-3
390
F
  0
LAYER
  5
1FA
100
AcDbSymbolTableRecord
100
AcDbLayerTableRecord
  2
DEFAULT_1
 70
0
 62
7
  6
CENTER
370
-3
390
F
  0
LAYER
  5
1FB
100
AcDbSymbolTableRecord
100
AcDbLayerTableRecord
  2
DEFAULT_2
 70
0
 62
8
  6
HIDDEN
370
-3
390
F
  0
LAYER
  5
1FC
100
AcDbSymbolTableRecord
100
AcDbLayerTableRecord
  2
DEFAULT_3
 70
0
 62
7
  6
PHANTOM
370
-3
390
F
  0
LAYER
  5
1FD
100
AcDbSymbolTableRecord
100
AcDbLayerTableRecord
  2
3__DETAIL
 70
0
 62
7
  6
CONTINUOUS
370
-3
390
F
  0
LAYER
  5
1FE
100
AcDbSymbolTableRecord
100
AcDbLayerTableRecord
  2
3__NOTES
 70
0
 62
7
  6
CONTINUOUS
370
-3
390
F
  0
ENDTAB
  0
TABLE
  2
STYLE
  5
3
100
AcDbSymbolTable
 70
1
  0
STYLE
  5
11
100
AcDbSymbolTableRecord
100
AcDbTextStyleTableRecord
  2
STANDARD
 70
0
 40
0.0
 41
0.8
 50
0.0
 71
0
 42
0.2
  3
txt
  4

  0
STYLE
  5
1FF
100
AcDbSymbolTableRecord
100
AcDbTextStyleTableRecord
  2
TEXTSTYLE_1
 70
0
 40
0.0
 41
0.8
 50
0.0
 71
0
 42
0.2
  3
gdt
  4

  0
STYLE
  5
200
100
AcDbSymbolTableRecord
100
AcDbTextStyleTableRecord
  2
TEXTSTYLE_2
 70
0
 40
0.0
 41
1.0
 50
0.0
 71
0
 42
0.2
  3
gost_a.ttf
  4

  0
STYLE
  5
201
100
AcDbSymbolTableRecord
100
AcDbTextStyleTableRecord
  2
TEXTSTYLE_3
 70
0
 40
0.0
 41
1.0
 50
0.0
 71
0
 42
0.2
  3
gost_a.ttf
  4

  0
ENDTAB
  0
TABLE
  2
VIEW
  5
6
100
AcDbSymbolTable
 70
0
  0
ENDTAB
  0
TABLE
  2
UCS
  5
7
100
AcDbSymbolTable
 70
0
  0
ENDTAB
  0
TABLE
  2
APPID
  5
9
100
AcDbSymbolTable
 70
1
  0
APPID
  5
202
100
AcDbSymbolTableRecord
100
AcDbRegAppTableRecord
  2
ACAD
 70
0
  0
ENDTAB
  0
TABLE
  2
BLOCK_RECORD
  5
1
100
AcDbSymbolTable
 70
0
  0
BLOCK_RECORD
  5
203
100
AcDbSymbolTableRecord
100
AcDbBlockTableRecord
  2
*Model_Space
  0
BLOCK_RECORD
  5
204
100
AcDbSymbolTableRecord
100
AcDbBlockTableRecord
  2
*Paper_Space
  0
BLOCK_RECORD
  5
205
100
AcDbSymbolTableRecord
100
AcDbBlockTableRecord
  2
*T1
  0
BLOCK_RECORD
  5
206
100
AcDbSymbolTableRecord
100
AcDbBlockTableRecord
  2
*T2
  0
BLOCK_RECORD
  5
207
100
AcDbSymbolTableRecord
100
AcDbBlockTableRecord
  2
*T3
  0
BLOCK_RECORD
  5
208
100
AcDbSymbolTableRecord
100
AcDbBlockTableRecord
  2
*T4
  0
BLOCK_RECORD
  5
209
100
AcDbSymbolTableRecord
100
AcDbBlockTableRecord
  2
*T5
  0
ENDTAB
  0
TABLE
  2
DIMSTYLE
  5
A
100
AcDbSymbolTable
 70
1
100
AcDbDimStyleTable
 71
0
  0
DIMSTYLE
105
20A
100
AcDbSymbolTableRecord
100
AcDbDimStyleTableRecord
  2
STANDARD
 70
0
  3

  4

 40
1.0
 41
3.0
 42
0.0
 43
0.38
 44
1.5
 45
0.0
 46
0.0
 47
0.05
 48
0.05
140
3.5
141
0.09
142
0.0
143
25.4
144
1.0
145
0.0
146
1.0
147
0.625
 71
1.0
 72
0.0
 73
0
 74
0
 75
0
 76
0
 77
1
 78
8
 79
2
170
0
171
2
172
0
173
0
174
0
175
0
176
0
177
0
178
0
270
2
179
3
271
3
272
3
273
2
274
2
275
0
280
0
281
0
282
0
283
1
284
8
285
0
286
0
287
3
288
0
340
11
278
44
  0
ENDTAB
  0
ENDSEC
  0
SECTION
  2
BLOCKS
  0
BLOCK
  5
20
100
AcDbEntity
  8
0
100
AcDbBlockBegin
  2
*Model_Space
 70
0
 10
0.0
 20
0.0
 30
0.0
  3
*Model_Space
  1

  0
ENDBLK
  5
21
100
AcDbEntity
  8
0
100
AcDbBlockEnd
  0
BLOCK
  5
1C
100
AcDbEntity
  8
0
100
AcDbBlockBegin
  2
*Paper_Space
 70
0
 10
0.0
 20
0.0
 30
0.0
  3
*Paper_Space
  1

  0
ENDBLK
  5
1D
100
AcDbEntity
  8
0
100
AcDbBlockEnd
  0
BLOCK
  5
20B
100
AcDbEntity
  8
0
100
AcDbBlockBegin
  2
*T1
 70
1
 10
0.0
 20
0.0
  3
*T1
  1

  0
LINE
  5
20C
100
AcDbEntity
  8
0
100
AcDbLine
 62
2
  6
CONTINUOUS
 10
0.0
 20
0.0
 11
185.0
 21
0.0
  0
LINE
  5
20D
100
AcDbEntity
  8
0
100
AcDbLine
 62
2
  6
CONTINUOUS
 10
0.0
 20
0.0
 11
0.0
 21
-55.0
  0
LINE
  5
20E
100
AcDbEntity
  8
0
100
AcDbLine
 62
2
  6
CONTINUOUS
 10
0.0
 20
-5.0
 11
65.0
 21
-5.0
  0
LINE
  5
20F
100
AcDbEntity
  8
0
100
AcDbLine
 62
2
  6
CONTINUOUS
 10
0.0
 20
-10.0
 11
65.0
 21
-10.0
  0
LINE
  5
210
100
AcDbEntity
  8
0
100
AcDbLine
 62
2
  6
CONTINUOUS
 10
0.0
 20
-15.0
 11
185.0
 21
-15.0
  0
LINE
  5
211
100
AcDbEntity
  8
0
100
AcDbLine
 62
2
  6
CONTINUOUS
 10
0.0
 20
-20.0
 11
65.0
 21
-20.0
  0
LINE
  5
212
100
AcDbEntity
  8
0
100
AcDbLine
 62
2
  6
CONTINUOUS
 10
135.0
 20
-20.0
 11
185.0
 21
-20.0
  0
LINE
  5
213
100
AcDbEntity
  8
0
100
AcDbLine
 62
2
  6
CONTINUOUS
 10
0.0
 20
-25.0
 11
65.0
 21
-25.0
  0
LINE
  5
214
100
AcDbEntity
  8
0
100
AcDbLine
 62
2
  6
CONTINUOUS
 10
0.0
 20
-30.0
 11
65.0
 21
-30.0
  0
LINE
  5
215
100
AcDbEntity
  8
0
100
AcDbLine
 62
2
  6
CONTINUOUS
 10
0.0
 20
-35.0
 11
65.0
 21
-35.0
  0
LINE
  5
216
100
AcDbEntity
  8
0
100
AcDbLine
 62
2
  6
CONTINUOUS
 10
135.0
 20
-35.0
 11
185.0
 21
-35.0
  0
LINE
  5
217
100
AcDbEntity
  8
0
100
AcDbLine
 62
2
  6
CONTINUOUS
 10
0.0
 20
-40.0
 11
185.0
 21
-40.0
  0
LINE
  5
218
100
AcDbEntity
  8
0
100
AcDbLine
 62
2
  6
CONTINUOUS
 10
0.0
 20
-45.0
 11
65.0
 21
-45.0
  0
LINE
  5
219
100
AcDbEntity
  8
0
100
AcDbLine
 62
2
  6
CONTINUOUS
 10
0.0
 20
-50.0
 11
65.0
 21
-50.0
  0
LINE
  5
21A
100
AcDbEntity
  8
0
100
AcDbLine
 62
2
  6
CONTINUOUS
 10
0.0
 20
-55.0
 11
185.0
 21
-55.0
  0
LINE
  5
21B
100
AcDbEntity
  8
0
100
AcDbLine
 62
2
  6
CONTINUOUS
 10
7.0
 20
0.0
 11
7.0
 21
-25.0
  0
LINE
  5
21C
100
AcDbEntity
  8
0
100
AcDbLine
 62
2
  6
CONTINUOUS
 10
17.0
 20
0.0
 11
17.0
 21
-55.0
  0
LINE
  5
21D
100
AcDbEntity
  8
0
100
AcDbLine
 62
2
  6
CONTINUOUS
 10
40.0
 20
0.0
 11
40.0
 21
-55.0
  0
LINE
  5
21E
100
AcDbEntity
  8
0
100
AcDbLine
 62
2
  6
CONTINUOUS
 10
55.0
 20
0.0
 11
55.0
 21
-55.0
  0
LINE
  5
21F
100
AcDbEntity
  8
0
100
AcDbLine
 62
2
  6
CONTINUOUS
 10
65.0
 20
0.0
 11
65.0
 21
-55.0
  0
LINE
  5
220
100
AcDbEntity
  8
0
100
AcDbLine
 62
2
  6
CONTINUOUS
 10
135.0
 20
-15.0
 11
135.0
 21
-55.0
  0
LINE
  5
221
100
AcDbEntity
  8
0
100
AcDbLine
 62
2
  6
CONTINUOUS
 10
140.0
 20
-20.0
 11
140.0
 21
-35.0
  0
LINE
  5
222
100
AcDbEntity
  8
0
100
AcDbLine
 62
2
  6
CONTINUOUS
 10
145.0
 20
-20.0
 11
145.0
 21
-35.0
  0
LINE
  5
223
100
AcDbEntity
  8
0
100
AcDbLine
 62
2
  6
CONTINUOUS
 10
150.0
 20
-15.0
 11
150.0
 21
-35.0
  0
LINE
  5
224
100
AcDbEntity
  8
0
100
AcDbLine
 62
2
  6
CONTINUOUS
 10
155.0
 20
-35.0
 11
155.0
 21
-40.0
  0
LINE
  5
225
100
AcDbEntity
  8
0
100
AcDbLine
 62
2
  6
CONTINUOUS
 10
167.0
 20
-15.0
 11
167.0
 21
-35.0
  0
LINE
  5
226
100
AcDbEntity
  8
0
100
AcDbLine
 62
2
  6
CONTINUOUS
 10
185.0
 20
0.0
 11
185.0
 21
-55.0
  0
MTEXT
  5
227
100
AcDbEntity
  8
3__DETAIL
100
AcDbMText
 62
2
  6
CONTINUOUS
  7
TEXTSTYLE_3
 71
2
 72
1
 10
125.0
 20
-5.25
 30
0.0
 11
1.0
 21
0.0
 31
0.0
 73
2
 44
0.9
  1
ЧЯ.2000-0Э3
 40
4.5
 41
58.60546875
  0
MTEXT
  5
228
100
AcDbEntity
  8
3__DETAIL
100
AcDbMText
 62
2
  6
CONTINUOUS
  7
TEXTSTYLE_3
 71
2
 72
1
 10
100.0
 20
-18.5
 30
0.0
 11
1.0
 21
0.0
 31
0.0
 73
2
 44
0.9
  1
Плата черного ящика\PСхема электрическая\Pпринципиальная 
 40
4.5
 41
100.1953125
  0
MTEXT
  5
229
100
AcDbEntity
  8
3__DETAIL
100
AcDbMText
 62
2
  6
CONTINUOUS
  7
TEXTSTYLE_2
 71
2
 72
1
 10
142.5
 20
-16.1
 30
0.0
 11
1.0
 21
0.0
 31
0.0
 73
2
 44
0.9
  1
Ëèò.
 40
2.8
 41
12.796875
  0
MTEXT
  5
22A
100
AcDbEntity
  8
3__DETAIL
100
AcDbMText
 62
2
  6
CONTINUOUS
  7
TEXTSTYLE_2
 71
2
 72
1
 10
158.5
 20
-16.1
 30
0.0
 11
1.0
 21
0.0
 31
0.0
 73
2
 44
0.9
  1
Ìàññà
 40
2.8
 41
17.171875
  0
MTEXT
  5
22B
100
AcDbEntity
  8
3__DETAIL
100
AcDbMText
 62
2
  6
CONTINUOUS
  7
TEXTSTYLE_2
 71
2
 72
1
 10
176.0
 20
-16.1
 30
0.0
 11
1.0
 21
0.0
 31
0.0
 73
2
 44
0.9
  1
Ìàñøòàá
 40
2.8
 41
25.965625
  0
MTEXT
  5
22C
100
AcDbEntity
  8
3__DETAIL
100
AcDbMText
 62
2
  6
CONTINUOUS
  7
TEXTSTYLE_2
 71
2
 72
1
 10
3.5
 20
-21.25
 30
0.0
 11
1.0
 21
0.0
 31
0.0
 73
2
 44
0.9
  1
Èçì.
 40
2.5
 41
10.1953125
  0
MTEXT
  5
22D
100
AcDbEntity
  8
3__DETAIL
100
AcDbMText
 62
2
  6
CONTINUOUS
  7
TEXTSTYLE_2
 71
2
 72
1
 10
12.0
 20
-21.25
 30
0.0
 11
1.0
 21
0.0
 31
0.0
 73
2
 44
0.9
  1
Ëèñò
 40
2.5
 41
13.203125
  0
MTEXT
  5
22E
100
AcDbEntity
  8
3__DETAIL
100
AcDbMText
 62
2
  6
CONTINUOUS
  7
TEXTSTYLE_2
 71
2
 72
1
 10
28.5
 20
-21.25
 30
0.0
 11
1.0
 21
0.0
 31
0.0
 73
2
 44
0.9
  1
N äîêóì.
 40
2.5
 41
21.07421875
  0
MTEXT
  5
22F
100
AcDbEntity
  8
3__DETAIL
100
AcDbMText
 62
2
  6
CONTINUOUS
  7
TEXTSTYLE_2
 71
2
 72
1
 10
47.5
 20
-21.25
 30
0.0
 11
1.0
 21
0.0
 31
0.0
 73
2
 44
0.9
  1
Ïîäï.
 40
2.5
 41
12.8515625
  0
MTEXT
  5
230
100
AcDbEntity
  8
3__DETAIL
100
AcDbMText
 62
2
  6
CONTINUOUS
  7
TEXTSTYLE_2
 71
2
 72
1
 10
60.0
 20
-21.25
 30
0.0
 11
1.0
 21
0.0
 31
0.0
 73
2
 44
0.9
  1
Äàòà
 40
2.5
 41
13.203125
  0
MTEXT
  5
231
100
AcDbEntity
  8
3__NOTES
100
AcDbMText
 62
2
  6
CONTINUOUS
  7
TEXTSTYLE_2
 71
2
 72
1
 10
158.5
 20
-26.1
 30
0.0
 11
1.0
 21
0.0
 31
0.0
 73
2
 44
0.9
  1
-
 40
2.8
 41
3.19375
  0
MTEXT
  5
232
100
AcDbEntity
  8
3__DETAIL
100
AcDbMText
 62
2
  6
CONTINUOUS
  7
TEXTSTYLE_2
 71
2
 72
1
 10
176.0
 20
-26.1
 30
0.0
 11
1.0
 21
0.0
 31
0.0
 73
2
 44
0.9
  1
-
 40
2.8
 41
3.19375
  0
MTEXT
  5
233
100
AcDbEntity
  8
3__DETAIL
100
AcDbMText
 62
2
  6
CONTINUOUS
  7
TEXTSTYLE_2
 71
1
 72
1
 10
1.12
 20
-26.25
 30
0.0
 11
1.0
 21
0.0
 31
0.0
 73
2
 44
0.9
  1
Ðàçðàá.
 40
2.5
 41
18.37890625
  0
MTEXT
  5
234
100
AcDbEntity
  8
3__NOTES
100
AcDbMText
 62
2
  6
CONTINUOUS
  7
TEXTSTYLE_2
 71
1
 72
1
 10
18.12
 20
-26.25
 30
0.0
 11
1.0
 21
0.0
 31
0.0
 73
2
 44
0.9
  1
Смирнов
 40
2.5
 41
20.33203125
  0
MTEXT
  5
235
100
AcDbEntity
  8
3__DETAIL
100
AcDbMText
 62
2
  6
CONTINUOUS
  7
TEXTSTYLE_2
 71
1
 72
1
 10
1.12
 20
-31.25
 30
0.0
 11
1.0
 21
0.0
 31
0.0
 73
2
 44
0.9
  1
Ïðîâ.
 40
2.5
 41
12.8515625
  0
MTEXT
  5
236
100
AcDbEntity
  8
3__DETAIL
100
AcDbMText
 62
2
  6
CONTINUOUS
  7
TEXTSTYLE_2
 71
1
 72
1
 10
18.12
 20
-31.4
 30
0.0
 11
1.0
 21
0.0
 31
0.0
 73
2
 44
0.9
  1
Алексеенков
 40
2.5
 41
32.08984375
  0
MTEXT
  5
237
100
AcDbEntity
  8
3__DETAIL
100
AcDbMText
 62
2
  6
CONTINUOUS
  7
TEXTSTYLE_2
 71
1
 72
1
 10
1.12
 20
-36.25
 30
0.0
 11
1.0
 21
0.0
 31
0.0
 73
2
 44
0.9
  1
Ò. êîíòð.
 40
2.5
 41
22.8515625
  0
MTEXT
  5
238
100
AcDbEntity
  8
3__DETAIL
100
AcDbMText
 62
2
  6
CONTINUOUS
  7
TEXTSTYLE_2
 71
2
 72
1
 10
145.0
 20
-36.1
 30
0.0
 11
1.0
 21
0.0
 31
0.0
 73
2
 44
0.9
  1
Ëèñò
 40
2.8
 41
14.7875
  0
MTEXT
  5
239
100
AcDbEntity
  8
3__NOTES
100
AcDbMText
 62
2
  6
CONTINUOUS
  7
TEXTSTYLE_2
 71
2
 72
1
 10
170.0
 20
-36.1
 30
0.0
 11
1.0
 21
0.0
 31
0.0
 73
2
 44
0.9
  1
Ëèñòîâ 1
 40
2.8
 41
25.9875
  0
MTEXT
  5
23A
100
AcDbEntity
  8
3__DETAIL
100
AcDbMText
 62
2
  6
CONTINUOUS
  7
TEXTSTYLE_2
 71
1
 72
1
 10
1.12
 20
-41.25
 30
0.0
 11
1.0
 21
0.0
 31
0.0
 73
2
 44
0.9
  1
Í. ñåêò.
 40
2.5
 41
20.0
  0
MTEXT
  5
23B
100
AcDbEntity
  8
3__DETAIL
100
AcDbMText
 62
2
  6
CONTINUOUS
  7
TEXTSTYLE_2
 71
2
 72
1
 10
160.0
 20
-46.1
 30
0.0
 11
1.0
 21
0.0
 31
0.0
 73
2
 44
0.9
  1
Команда "БАНКА"
 40
2.8
 41
48.453125
  0
MTEXT
  5
23C
100
AcDbEntity
  8
3__DETAIL
100
AcDbMText
 62
2
  6
CONTINUOUS
  7
TEXTSTYLE_2
 71
1
 72
1
 10
1.12
 20
-46.25
 30
0.0
 11
1.0
 21
0.0
 31
0.0
 73
2
 44
0.9
  1
Í. êîíòð.
 40
2.5
 41
22.8515625
  0
MTEXT
  5
23D
100
AcDbEntity
  8
3__DETAIL
100
AcDbMText
 62
2
  6
CONTINUOUS
  7
TEXTSTYLE_2
 71
1
 72
1
 10
1.12
 20
-51.25
 30
0.0
 11
1.0
 21
0.0
 31
0.0
 73
2
 44
0.9
  1
Óòâ.
 40
2.5
 41
11.07421875
  0
MTEXT
  5
23E
100
AcDbEntity
  8
3__DETAIL
100
AcDbMText
 62
2
  6
CONTINUOUS
  7
TEXTSTYLE_2
 71
1
 72
1
 10
18.12
 20
-51.4
 30
0.0
 11
1.0
 21
0.0
 31
0.0
 73
2
 44
0.9
  1
Черкасова
 40
2.5
 41
26.03515625
  0
ENDBLK
  5
23F
100
AcDbEntity
  8
0
  6
BYBLOCK
 62
0
100
AcDbBlockEnd
  0
BLOCK
  5
240
100
AcDbEntity
  8
0
100
AcDbBlockBegin
  2
*T2
 70
1
 10
0.0
 20
0.0
  3
*T2
  1

  0
LINE
  5
241
100
AcDbEntity
  8
0
100
AcDbLine
 62
7
  6
CONTINUOUS
 10
0.0
 20
0.0
 11
137.0
 21
0.0
  0
LINE
  5
242
100
AcDbEntity
  8
0
100
AcDbLine
 62
7
  6
CONTINUOUS
 10
0.0
 20
0.0
 11
0.0
 21
-14.0
  0
LINE
  5
243
100
AcDbEntity
  8
0
100
AcDbLine
 62
7
  6
CONTINUOUS
 10
84.0
 20
-7.0
 11
137.0
 21
-7.0
  0
LINE
  5
244
100
AcDbEntity
  8
0
100
AcDbLine
 62
7
  6
CONTINUOUS
 10
0.0
 20
-14.0
 11
137.0
 21
-14.0
  0
LINE
  5
245
100
AcDbEntity
  8
0
100
AcDbLine
 62
7
  6
CONTINUOUS
 10
70.0
 20
0.0
 11
70.0
 21
-14.0
  0
LINE
  5
246
100
AcDbEntity
  8
0
100
AcDbLine
 62
7
  6
CONTINUOUS
 10
84.0
 20
0.0
 11
84.0
 21
-14.0
  0
LINE
  5
247
100
AcDbEntity
  8
0
100
AcDbLine
 62
7
  6
CONTINUOUS
 10
137.0
 20
0.0
 11
137.0
 21
-14.0
  0
MTEXT
  5
248
100
AcDbEntity
  8
3__DETAIL
100
AcDbMText
 62
2
  6
CONTINUOUS
  7
TEXTSTYLE_3
 71
2
 72
1
 10
35.0
 20
-9.25
 30
0.0
 11
-1.0
 21
0.0
 31
0.0
 73
2
 44
0.9
  1
ЧЯ.2000-0Э3
 40
4.5
 41
58.60546875
  0
ENDBLK
  5
249
100
AcDbEntity
  8
0
  6
BYBLOCK
 62
0
100
AcDbBlockEnd
  0
BLOCK
  5
24A
100
AcDbEntity
  8
0
100
AcDbBlockBegin
  2
*T3
 70
1
 10
0.0
 20
0.0
  3
*T3
  1

  0
LINE
  5
24B
100
AcDbEntity
  8
0
100
AcDbLine
 62
7
  6
CONTINUOUS
 10
0.0
 20
0.0
 11
0.0
 21
145.0
  0
LINE
  5
24C
100
AcDbEntity
  8
0
100
AcDbLine
 62
7
  6
CONTINUOUS
 10
0.0
 20
0.0
 11
12.0
 21
0.0
  0
LINE
  5
24D
100
AcDbEntity
  8
0
100
AcDbLine
 62
7
  6
CONTINUOUS
 10
5.0
 20
0.0
 11
5.0
 21
145.0
  0
LINE
  5
24E
100
AcDbEntity
  8
0
100
AcDbLine
 62
7
  6
CONTINUOUS
 10
12.0
 20
0.0
 11
12.0
 21
145.0
  0
LINE
  5
24F
100
AcDbEntity
  8
0
100
AcDbLine
 62
7
  6
CONTINUOUS
 10
0.0
 20
25.0
 11
12.0
 21
25.0
  0
LINE
  5
250
100
AcDbEntity
  8
0
100
AcDbLine
 62
7
  6
CONTINUOUS
 10
0.0
 20
60.0
 11
12.0
 21
60.0
  0
LINE
  5
251
100
AcDbEntity
  8
0
100
AcDbLine
 62
7
  6
CONTINUOUS
 10
0.0
 20
85.0
 11
12.0
 21
85.0
  0
LINE
  5
252
100
AcDbEntity
  8
0
100
AcDbLine
 62
7
  6
CONTINUOUS
 10
0.0
 20
110.0
 11
12.0
 21
110.0
  0
LINE
  5
253
100
AcDbEntity
  8
0
100
AcDbLine
 62
7
  6
CONTINUOUS
 10
0.0
 20
145.0
 11
12.0
 21
145.0
  0
MTEXT
  5
254
100
AcDbEntity
  8
3__DETAIL
100
AcDbMText
 62
2
  6
CONTINUOUS
  7
TEXTSTYLE_2
 71
2
 72
1
 10
1.25
 20
12.5
 30
0.0
 11
0.0
 21
1.0
 31
0.0
 73
2
 44
0.9
  1
Èíâ. N ïîäë.
 40
2.5
 41
30.0
  0
MTEXT
  5
255
100
AcDbEntity
  8
3__DETAIL
100
AcDbMText
 62
2
  6
CONTINUOUS
  7
TEXTSTYLE_2
 71
2
 72
1
 10
1.25
 20
42.5
 30
0.0
 11
0.0
 21
1.0
 31
0.0
 73
2
 44
0.9
  1
Ïîäï. è äàòà
 40
2.5
 41
32.48046875
  0
MTEXT
  5
256
100
AcDbEntity
  8
3__DETAIL
100
AcDbMText
 62
2
  6
CONTINUOUS
  7
TEXTSTYLE_2
 71
2
 72
1
 10
1.25
 20
72.5
 30
0.0
 11
0.0
 21
1.0
 31
0.0
 73
2
 44
0.9
  1
Âçàì. èíâ. N
 40
2.5
 41
30.1953125
  0
MTEXT
  5
257
100
AcDbEntity
  8
3__DETAIL
100
AcDbMText
 62
2
  6
CONTINUOUS
  7
TEXTSTYLE_2
 71
2
 72
1
 10
1.25
 20
97.5
 30
0.0
 11
0.0
 21
1.0
 31
0.0
 73
2
 44
0.9
  1
Èíâ. N ïîäë.
 40
2.5
 41
30.0
  0
MTEXT
  5
258
100
AcDbEntity
  8
3__DETAIL
100
AcDbMText
 62
2
  6
CONTINUOUS
  7
TEXTSTYLE_2
 71
2
 72
1
 10
1.25
 20
127.5
 30
0.0
 11
0.0
 21
1.0
 31
0.0
 73
2
 44
0.9
  1
Ïîäï. è äàòà
 40
2.5
 41
32.48046875
  0
ENDBLK
  5
259
100
AcDbEntity
  8
0
  6
BYBLOCK
 62
0
100
AcDbBlockEnd
  0
BLOCK
  5
25A
100
AcDbEntity
  8
0
100
AcDbBlockBegin
  2
*T4
 70
1
 10
0.0
 20
0.0
  3
*T4
  1

  0
LINE
  5
25B
100
AcDbEntity
  8
0
100
AcDbLine
 62
7
  6
CONTINUOUS
 10
-0.0
 20
0.0
 11
-0.0
 21
120.0
  0
LINE
  5
25C
100
AcDbEntity
  8
0
100
AcDbLine
 62
7
  6
CONTINUOUS
 10
-0.0
 20
0.0
 11
12.0
 21
0.0
  0
LINE
  5
25D
100
AcDbEntity
  8
0
100
AcDbLine
 62
7
  6
CONTINUOUS
 10
5.0
 20
0.0
 11
5.0
 21
120.0
  0
LINE
  5
25E
100
AcDbEntity
  8
0
100
AcDbLine
 62
7
  6
CONTINUOUS
 10
12.0
 20
0.0
 11
12.0
 21
120.0
  0
LINE
  5
25F
100
AcDbEntity
  8
0
100
AcDbLine
 62
7
  6
CONTINUOUS
 10
-0.0
 20
60.0
 11
12.0
 21
60.0
  0
LINE
  5
260
100
AcDbEntity
  8
0
100
AcDbLine
 62
7
  6
CONTINUOUS
 10
-0.0
 20
120.0
 11
12.0
 21
120.0
  0
MTEXT
  5
261
100
AcDbEntity
  8
3__DETAIL
100
AcDbMText
 62
2
  6
CONTINUOUS
  7
TEXTSTYLE_2
 71
2
 72
1
 10
1.25
 20
30.0
 30
0.0
 11
0.0
 21
1.0
 31
0.0
 73
2
 44
0.9
  1
Ñïðàâ. N
 40
2.5
 41
20.703125
  0
MTEXT
  5
262
100
AcDbEntity
  8
3__DETAIL
100
AcDbMText
 62
2
  6
CONTINUOUS
  7
TEXTSTYLE_2
 71
2
 72
1
 10
1.25
 20
90.0
 30
0.0
 11
0.0
 21
1.0
 31
0.0
 73
2
 44
0.9
  1
Ïåðâ. ïðèìåí.
 40
2.5
 41
33.5546875
  0
ENDBLK
  5
263
100
AcDbEntity
  8
0
  6
BYBLOCK
 62
0
100
AcDbBlockEnd
  0
BLOCK
  5
264
100
AcDbEntity
  8
0
100
AcDbBlockBegin
  2
*T5
 70
1
 10
0.0
 20
0.0
  3
*T5
  1

  0
LINE
  5
265
100
AcDbEntity
  8
0
100
AcDbLine
 62
7
  6
CONTINUOUS
 10
0.0
 20
0.0
 11
0.0
 21
260.0
  0
LINE
  5
266
100
AcDbEntity
  8
0
100
AcDbLine
 62
7
  6
CONTINUOUS
 10
0.0
 20
0.0
 11
5.0
 21
0.0
  0
LINE
  5
267
100
AcDbEntity
  8
0
100
AcDbLine
 62
7
  6
CONTINUOUS
 10
5.0
 20
0.0
 11
5.0
 21
260.0
  0
LINE
  5
268
100
AcDbEntity
  8
0
100
AcDbLine
 62
7
  6
CONTINUOUS
 10
0.0
 20
17.0
 11
5.0
 21
17.0
  0
LINE
  5
269
100
AcDbEntity
  8
0
100
AcDbLine
 62
7
  6
CONTINUOUS
 10
0.0
 20
40.0
 11
5.0
 21
40.0
  0
LINE
  5
26A
100
AcDbEntity
  8
0
100
AcDbLine
 62
7
  6
CONTINUOUS
 10
0.0
 20
55.0
 11
5.0
 21
55.0
  0
LINE
  5
26B
100
AcDbEntity
  8
0
100
AcDbLine
 62
7
  6
CONTINUOUS
 10
0.0
 20
65.0
 11
5.0
 21
65.0
  0
LINE
  5
26C
100
AcDbEntity
  8
0
100
AcDbLine
 62
7
  6
CONTINUOUS
 10
0.0
 20
82.0
 11
5.0
 21
82.0
  0
LINE
  5
26D
100
AcDbEntity
  8
0
100
AcDbLine
 62
7
  6
CONTINUOUS
 10
0.0
 20
105.0
 11
5.0
 21
105.0
  0
LINE
  5
26E
100
AcDbEntity
  8
0
100
AcDbLine
 62
7
  6
CONTINUOUS
 10
0.0
 20
120.0
 11
5.0
 21
120.0
  0
LINE
  5
26F
100
AcDbEntity
  8
0
100
AcDbLine
 62
7
  6
CONTINUOUS
 10
0.0
 20
130.0
 11
5.0
 21
130.0
  0
LINE
  5
270
100
AcDbEntity
  8
0
100
AcDbLine
 62
7
  6
CONTINUOUS
 10
0.0
 20
147.0
 11
5.0
 21
147.0
  0
LINE
  5
271
100
AcDbEntity
  8
0
100
AcDbLine
 62
7
  6
CONTINUOUS
 10
0.0
 20
170.0
 11
5.0
 21
170.0
  0
LINE
  5
272
100
AcDbEntity
  8
0
100
AcDbLine
 62
7
  6
CONTINUOUS
 10
0.0
 20
185.0
 11
5.0
 21
185.0
  0
LINE
  5
273
100
AcDbEntity
  8
0
100
AcDbLine
 62
7
  6
CONTINUOUS
 10
0.0
 20
195.0
 11
5.0
 21
195.0
  0
LINE
  5
274
100
AcDbEntity
  8
0
100
AcDbLine
 62
7
  6
CONTINUOUS
 10
0.0
 20
212.0
 11
5.0
 21
212.0
  0
LINE
  5
275
100
AcDbEntity
  8
0
100
AcDbLine
 62
7
  6
CONTINUOUS
 10
0.0
 20
235.0
 11
5.0
 21
235.0
  0
LINE
  5
276
100
AcDbEntity
  8
0
100
AcDbLine
 62
7
  6
CONTINUOUS
 10
0.0
 20
250.0
 11
5.0
 21
250.0
  0
LINE
  5
277
100
AcDbEntity
  8
0
100
AcDbLine
 62
7
  6
CONTINUOUS
 10
0.0
 20
260.0
 11
5.0
 21
260.0
  0
ENDBLK
  5
278
100
AcDbEntity
  8
0
  6
BYBLOCK
 62
0
100
AcDbBlockEnd
  0
ENDSEC
  0
SECTION
  2
ENTITIES
  0
MTEXT
  5
279
100
AcDbEntity
  8
0
100
AcDbMText
 62
2
  6
CONTINUOUS
  7
TEXTSTYLE_2
 71
1
 72
1
 10
297.0
 20
4.25
 30
0.0
 11
1.0
 21
0.0
 31
0.0
 73
2
 44
0.9
  1
Êîïèðîâàë
 40
2.5
 41
13.017578125
  0
MTEXT
  5
27A
100
AcDbEntity
  8
0
100
AcDbMText
 62
2
  6
CONTINUOUS
  7
TEXTSTYLE_2
 71
1
 72
1
 10
382.0
 20
4.25
 30
0.0
 11
1.0
 21
0.0
 31
0.0
 73
2
 44
0.9
  1
Ôîðìàò À3
 40
2.5
 41
14.462890625
  0
ACAD_TABLE
  5
27B
100
AcDbEntity
  8
0
 62
2
  6
CONTINUOUS
100
AcDbBlockReference
  2
*T1
 10
230.0
 20
60.0
 30
0.0
100
AcDbTable
342
       29F
343
205
 11
1.0
 21
0.0
 31
0.0
 90
22
 91
11
 92
12
 93
0
 94
0
 95
0
 96
0
141
5.0
141
5.0
141
5.0
141
5.0
141
5.0
141
5.0
141
5.0
141
5.0
141
5.0
141
5.0
141
5.0
142
7.0
142
10.0
142
23.0
142
15.0
142
10.0
142
70.0
142
5.0
142
5.0
142
5.0
142
5.0
142
12.0
142
18.0
171
1
172
0
173
0
174
0
175
1
176
1
 91
33
178
0
145
0.0
301
CELL_VALUE
 90
4
  1
 
304
ACVALUE_END
170
1
140
2.8
171
1
172
0
173
0
174
0
175
1
176
1
 91
33
178
0
145
0.0
301
CELL_VALUE
 90
4
  1
 
304
ACVALUE_END
170
1
140
2.8
171
1
172
0
173
0
174
0
175
1
176
1
 91
33
178
0
145
0.0
301
CELL_VALUE
 90
4
  1
 
304
ACVALUE_END
170
1
140
2.8
171
1
172
0
173
0
174
0
175
1
176
1
 91
33
178
0
145
0.0
301
CELL_VALUE
 90
4
  1
 
304
ACVALUE_END
170
1
140
2.8
171
1
172
0
173
0
174
0
175
1
176
1
 91
33
178
0
145
0.0
301
CELL_VALUE
 90
4
  1
 
304
ACVALUE_END
170
1
140
2.8
171
1
172
0
173
0
174
0
175
7
176
3
 91
49
178
0
145
0.0
  7
TEXTSTYLE_3
301
CELL_VALUE
 90
4
  1
ЧЯ.2000-0Э3
304
ACVALUE_END
170
5
140
4.5
171
1
172
0
173
1
174
0
175
1
176
1
 91
1
178
0
145
0.0
170
1
171
1
172
0
173
1
174
0
175
1
176
1
 91
1
178
0
145
0.0
170
1
171
1
172
0
173
1
174
0
175
1
176
1
 91
1
178
0
145
0.0
170
1
171
1
172
0
173
1
174
0
175
1
176
1
 91
1
178
0
145
0.0
170
1
171
1
172
0
173
1
174
0
175
1
176
1
 91
1
178
0
145
0.0
170
1
171
1
172
0
173
1
174
0
175
1
176
1
 91
1
178
0
145
0.0
170
1
171
1
172
0
173
0
174
0
175
1
176
1
 91
33
178
0
145
0.0
301
CELL_VALUE
 90
4
  1
 
304
ACVALUE_END
170
1
140
2.8
171
1
172
0
173
0
174
0
175
1
176
1
 91
33
178
0
145
0.0
301
CELL_VALUE
 90
4
  1
 
304
ACVALUE_END
170
1
140
2.8
171
1
172
0
173
0
174
0
175
1
176
1
 91
33
178
0
145
0.0
301
CELL_VALUE
 90
4
  1
 
304
ACVALUE_END
170
1
140
2.8
171
1
172
0
173
0
174
0
175
1
176
1
 91
33
178
0
145
0.0
301
CELL_VALUE
 90
4
  1
 
304
ACVALUE_END
170
1
140
2.8
171
1
172
0
173
0
174
0
175
1
176
1
 91
33
178
0
145
0.0
301
CELL_VALUE
 90
4
  1
 
304
ACVALUE_END
170
1
140
2.8
171
1
172
0
173
1
174
0
175
1
176
1
 91
1
178
0
145
0.0
170
1
171
1
172
0
173
1
174
0
175
1
176
1
 91
1
178
0
145
0.0
170
1
171
1
172
0
173
1
174
0
175
1
176
1
 91
1
178
0
145
0.0
170
1
171
1
172
0
173
1
174
0
175
1
176
1
 91
1
178
0
145
0.0
170
1
171
1
172
0
173
1
174
0
175
1
176
1
 91
1
178
0
145
0.0
170
1
171
1
172
0
173
1
174
0
175
1
176
1
 91
1
178
0
145
0.0
170
1
171
1
172
0
173
1
174
0
175
1
176
1
 91
1
178
0
145
0.0
170
1
171
1
172
0
173
0
174
0
175
1
176
1
 91
33
178
0
145
0.0
301
CELL_VALUE
 90
4
  1
 
304
ACVALUE_END
170
1
140
2.8
171
1
172
0
173
0
174
0
175
1
176
1
 91
33
178
0
145
0.0
301
CELL_VALUE
 90
4
  1
 
304
ACVALUE_END
170
1
140
2.8
171
1
172
0
173
0
174
0
175
1
176
1
 91
33
178
0
145
0.0
301
CELL_VALUE
 90
4
  1
 
304
ACVALUE_END
170
1
140
2.8
171
1
172
0
173
0
174
0
175
1
176
1
 91
33
178
0
145
0.0
301
CELL_VALUE
 90
4
  1
 
304
ACVALUE_END
170
1
140
2.8
171
1
172
0
173
0
174
0
175
1
176
1
 91
33
178
0
145
0.0
301
CELL_VALUE
 90
4
  1
 
304
ACVALUE_END
170
1
140
2.8
171
1
172
0
173
1
174
0
175
1
176
1
 91
1
178
0
145
0.0
170
1
171
1
172
0
173
1
174
0
175
1
176
1
 91
1
178
0
145
0.0
170
1
171
1
172
0
173
1
174
0
175
1
176
1
 91
1
178
0
145
0.0
170
1
171
1
172
0
173
1
174
0
175
1
176
1
 91
1
178
0
145
0.0
170
1
171
1
172
0
173
1
174
0
175
1
176
1
 91
1
178
0
145
0.0
170
1
171
1
172
0
173
1
174
0
175
1
176
1
 91
1
178
0
145
0.0
170
1
171
1
172
0
173
1
174
0
175
1
176
1
 91
1
178
0
145
0.0
170
1
171
1
172
0
173
0
174
0
175
1
176
1
 91
33
178
0
145
0.0
301
CELL_VALUE
 90
4
  1
 
304
ACVALUE_END
170
1
140
2.8
171
1
172
0
173
0
174
0
175
1
176
1
 91
33
178
0
145
0.0
301
CELL_VALUE
 90
4
  1
 
304
ACVALUE_END
170
1
140
2.8
171
1
172
0
173
0
174
0
175
1
176
1
 91
33
178
0
145
0.0
301
CELL_VALUE
 90
4
  1
 
304
ACVALUE_END
170
1
140
2.8
171
1
172
0
173
0
174
0
175
1
176
1
 91
33
178
0
145
0.0
301
CELL_VALUE
 90
4
  1
 
304
ACVALUE_END
170
1
140
2.8
171
1
172
0
173
0
174
0
175
1
176
1
 91
33
178
0
145
0.0
301
CELL_VALUE
 90
4
  1
 
304
ACVALUE_END
170
1
140
2.8
171
1
172
0
173
0
174
0
175
1
176
5
 91
49
178
0
145
0.0
  7
TEXTSTYLE_3
301
CELL_VALUE
 90
4
  1
Плата черного ящика\PСхема электрическая\Pпринципиальная 
304
ACVALUE_END
170
5
140
4.5
171
1
172
0
173
0
174
0
175
3
176
1
 91
49
178
0
145
0.0
  7
TEXTSTYLE_2
301
CELL_VALUE
 90
4
  1
Ëèò.
304
ACVALUE_END
170
5
140
2.8
171
1
172
0
173
1
174
0
175
1
176
1
 91
1
178
0
145
0.0
170
1
171
1
172
0
173
1
174
0
175
1
176
1
 91
1
178
0
145
0.0
170
1
171
1
172
0
173
0
174
0
175
2
176
1
 91
49
178
0
145
0.0
  7
TEXTSTYLE_2
301
CELL_VALUE
 90
4
  1
Ìàññà
304
ACVALUE_END
170
5
140
2.8
171
1
172
0
173
1
174
0
175
1
176
1
 91
1
178
0
145
0.0
170
1
171
1
172
0
173
0
174
0
175
1
176
1
 91
49
178
0
145
0.0
  7
TEXTSTYLE_2
301
CELL_VALUE
 90
4
  1
Ìàñøòàá
304
ACVALUE_END
170
5
140
2.8
171
1
172
0
173
0
174
0
175
1
176
1
 91
49
178
0
145
0.0
  7
TEXTSTYLE_2
301
CELL_VALUE
 90
4
  1
Èçì.
304
ACVALUE_END
170
5
140
2.5
171
1
172
0
173
0
174
0
175
1
176
1
 91
49
178
0
145
0.0
  7
TEXTSTYLE_2
301
CELL_VALUE
 90
4
  1
Ëèñò
304
ACVALUE_END
170
5
140
2.5
171
1
172
0
173
0
174
0
175
1
176
1
 91
49
178
0
145
0.0
  7
TEXTSTYLE_2
301
CELL_VALUE
 90
4
  1
N äîêóì.
304
ACVALUE_END
170
5
140
2.5
171
1
172
0
173
0
174
0
175
1
176
1
 91
49
178
0
145
0.0
  7
TEXTSTYLE_2
301
CELL_VALUE
 90
4
  1
Ïîäï.
304
ACVALUE_END
170
5
140
2.5
171
1
172
0
173
0
174
0
175
1
176
1
 91
49
178
0
145
0.0
  7
TEXTSTYLE_2
301
CELL_VALUE
 90
4
  1
Äàòà
304
ACVALUE_END
170
5
140
2.5
171
1
172
0
173
1
174
0
175
1
176
1
 91
1
178
0
145
0.0
170
1
171
1
172
0
173
0
174
0
175
1
176
3
 91
33
178
0
145
0.0
301
CELL_VALUE
 90
4
  1
 
304
ACVALUE_END
170
1
140
2.8
171
1
172
0
173
0
174
0
175
1
176
3
 91
33
178
0
145
0.0
301
CELL_VALUE
 90
4
  1
 
304
ACVALUE_END
170
1
140
2.8
171
1
172
0
173
0
174
0
175
1
176
3
 91
33
178
0
145
0.0
301
CELL_VALUE
 90
4
  1
 
304
ACVALUE_END
170
1
140
2.8
171
1
172
0
173
0
174
0
175
2
176
3
 91
49
178
0
145
0.0
  7
TEXTSTYLE_2
301
CELL_VALUE
 90
4
  1
-
304
ACVALUE_END
170
5
140
2.8
171
1
172
0
173
1
174
0
175
1
176
1
 91
1
178
0
145
0.0
170
1
171
1
172
0
173
0
174
0
175
1
176
3
 91
49
178
0
145
0.0
  7
TEXTSTYLE_2
301
CELL_VALUE
 90
4
  1
-
304
ACVALUE_END
170
5
140
2.8
171
1
172
0
173
0
174
0
175
2
176
1
 91
49
178
0
145
0.0
  7
TEXTSTYLE_2
301
CELL_VALUE
 90
4
  1
Ðàçðàá.
304
ACVALUE_END
170
4
140
2.5
171
1
172
0
173
1
174
0
175
1
176
1
 91
1
178
0
145
0.0
170
1
171
1
172
0
173
0
174
0
175
1
176
1
 91
49
178
0
145
0.0
  7
TEXTSTYLE_2
301
CELL_VALUE
 90
4
  1
Смирнов
304
ACVALUE_END
170
4
140
2.5
171
1
172
0
173
0
174
0
175
1
176
1
 91
33
178
0
145
0.0
301
CELL_VALUE
 90
4
  1
 
304
ACVALUE_END
170
1
140
2.8
171
1
172
0
173
0
174
0
175
1
176
1
 91
33
178
0
145
0.0
301
CELL_VALUE
 90
4
  1
 
304
ACVALUE_END
170
1
140
2.8
171
1
172
0
173
1
174
0
175
1
176
1
 91
1
178
0
145
0.0
170
1
171
1
172
0
173
1
174
0
175
1
176
1
 91
1
178
0
145
0.0
170
1
171
1
172
0
173
1
174
0
175
1
176
1
 91
1
178
0
145
0.0
170
1
171
1
172
0
173
1
174
0
175
1
176
1
 91
1
178
0
145
0.0
170
1
171
1
172
0
173
1
174
0
175
1
176
1
 91
1
178
0
145
0.0
170
1
171
1
172
0
173
1
174
0
175
1
176
1
 91
1
178
0
145
0.0
170
1
171
1
172
0
173
1
174
0
175
1
176
1
 91
1
178
0
145
0.0
170
1
171
1
172
0
173
0
174
0
175
2
176
1
 91
49
178
0
145
0.0
  7
TEXTSTYLE_2
301
CELL_VALUE
 90
4
  1
Ïðîâ.
304
ACVALUE_END
170
4
140
2.5
171
1
172
0
173
1
174
0
175
1
176
1
 91
1
178
0
145
0.0
170
1
171
1
172
0
173
0
174
0
175
1
176
1
 91
49
178
0
145
0.0
  7
TEXTSTYLE_2
301
CELL_VALUE
 90
4
  1
Алексеенков
304
ACVALUE_END
170
1
140
2.5
171
1
172
0
173
0
174
0
175
1
176
1
 91
33
178
0
145
0.0
301
CELL_VALUE
 90
4
  1
 
304
ACVALUE_END
170
1
140
2.8
171
1
172
0
173
0
174
0
175
1
176
1
 91
33
178
0
145
0.0
301
CELL_VALUE
 90
4
  1
 
304
ACVALUE_END
170
1
140
2.8
171
1
172
0
173
1
174
0
175
1
176
1
 91
1
178
0
145
0.0
170
1
171
1
172
0
173
1
174
0
175
1
176
1
 91
1
178
0
145
0.0
170
1
171
1
172
0
173
1
174
0
175
1
176
1
 91
1
178
0
145
0.0
170
1
171
1
172
0
173
1
174
0
175
1
176
1
 91
1
178
0
145
0.0
170
1
171
1
172
0
173
1
174
0
175
1
176
1
 91
1
178
0
145
0.0
170
1
171
1
172
0
173
1
174
0
175
1
176
1
 91
1
178
0
145
0.0
170
1
171
1
172
0
173
1
174
0
175
1
176
1
 91
1
178
0
145
0.0
170
1
171
1
172
0
173
0
174
0
175
2
176
1
 91
49
178
0
145
0.0
  7
TEXTSTYLE_2
301
CELL_VALUE
 90
4
  1
Ò. êîíòð.
304
ACVALUE_END
170
4
140
2.5
171
1
172
0
173
1
174
0
175
1
176
1
 91
1
178
0
145
0.0
170
1
171
1
172
0
173
0
174
0
175
1
176
1
 91
33
178
0
145
0.0
301
CELL_VALUE
 90
4
  1
 
304
ACVALUE_END
170
1
140
2.8
171
1
172
0
173
0
174
0
175
1
176
1
 91
33
178
0
145
0.0
301
CELL_VALUE
 90
4
  1
 
304
ACVALUE_END
170
1
140
2.8
171
1
172
0
173
0
174
0
175
1
176
1
 91
33
178
0
145
0.0
301
CELL_VALUE
 90
4
  1
 
304
ACVALUE_END
170
1
140
2.8
171
1
172
0
173
1
174
0
175
1
176
1
 91
1
178
0
145
0.0
170
1
171
1
172
0
173
0
174
0
175
4
176
1
 91
49
178
0
145
0.0
  7
TEXTSTYLE_2
301
CELL_VALUE
 90
4
  1
Ëèñò
304
ACVALUE_END
170
5
140
2.8
171
1
172
0
173
1
174
0
175
1
176
1
 91
1
178
0
145
0.0
170
1
171
1
172
0
173
1
174
0
175
1
176
1
 91
1
178
0
145
0.0
170
1
171
1
172
0
173
1
174
0
175
1
176
1
 91
1
178
0
145
0.0
170
1
171
1
172
0
173
0
174
0
175
2
176
1
 91
49
178
0
145
0.0
  7
TEXTSTYLE_2
301
CELL_VALUE
 90
4
  1
Ëèñòîâ 1
304
ACVALUE_END
170
5
140
2.8
171
1
172
0
173
1
174
0
175
1
176
1
 91
1
178
0
145
0.0
170
1
171
1
172
0
173
0
174
0
175
2
176
1
 91
49
178
0
145
0.0
  7
TEXTSTYLE_2
301
CELL_VALUE
 90
4
  1
Í. ñåêò.
304
ACVALUE_END
170
4
140
2.5
171
1
172
0
173
1
174
0
175
1
176
1
 91
1
178
0
145
0.0
170
1
171
1
172
0
173
0
174
0
175
1
176
1
 91
33
178
0
145
0.0
301
CELL_VALUE
 90
4
  1
 
304
ACVALUE_END
170
1
140
2.8
171
1
172
0
173
0
174
0
175
1
176
1
 91
33
178
0
145
0.0
301
CELL_VALUE
 90
4
  1
 
304
ACVALUE_END
170
1
140
2.8
171
1
172
0
173
0
174
0
175
1
176
1
 91
33
178
0
145
0.0
301
CELL_VALUE
 90
4
  1
 
304
ACVALUE_END
170
1
140
2.8
171
1
172
0
173
0
174
0
175
1
176
3
 91
33
178
0
145
0.0
301
CELL_VALUE
 90
4
  1
 
304
ACVALUE_END
170
1
140
2.8
171
1
172
0
173
0
174
0
175
6
176
3
 91
49
178
0
145
0.0
  7
TEXTSTYLE_2
301
CELL_VALUE
 90
4
  1
Команда "БАНКА"
304
ACVALUE_END
170
5
140
2.8
171
1
172
0
173
1
174
0
175
1
176
1
 91
1
178
0
145
0.0
170
1
171
1
172
0
173
1
174
0
175
1
176
1
 91
1
178
0
145
0.0
170
1
171
1
172
0
173
1
174
0
175
1
176
1
 91
1
178
0
145
0.0
170
1
171
1
172
0
173
1
174
0
175
1
176
1
 91
1
178
0
145
0.0
170
1
171
1
172
0
173
1
174
0
175
1
176
1
 91
1
178
0
145
0.0
170
1
171
1
172
0
173
0
174
0
175
2
176
1
 91
49
178
0
145
0.0
  7
TEXTSTYLE_2
301
CELL_VALUE
 90
4
  1
Í. êîíòð.
304
ACVALUE_END
170
4
140
2.5
171
1
172
0
173
1
174
0
175
1
176
1
 91
1
178
0
145
0.0
170
1
171
1
172
0
173
0
174
0
175
1
176
1
 91
33
178
0
145
0.0
301
CELL_VALUE
 90
4
  1
 
304
ACVALUE_END
170
1
140
2.8
171
1
172
0
173
0
174
0
175
1
176
1
 91
33
178
0
145
0.0
301
CELL_VALUE
 90
4
  1
 
304
ACVALUE_END
170
1
140
2.8
171
1
172
0
173
0
174
0
175
1
176
1
 91
33
178
0
145
0.0
301
CELL_VALUE
 90
4
  1
 
304
ACVALUE_END
170
1
140
2.8
171
1
172
0
173
1
174
0
175
1
176
1
 91
1
178
0
145
0.0
170
1
171
1
172
0
173
1
174
0
175
1
176
1
 91
1
178
0
145
0.0
170
1
171
1
172
0
173
1
174
0
175
1
176
1
 91
1
178
0
145
0.0
170
1
171
1
172
0
173
1
174
0
175
1
176
1
 91
1
178
0
145
0.0
170
1
171
1
172
0
173
1
174
0
175
1
176
1
 91
1
178
0
145
0.0
170
1
171
1
172
0
173
1
174
0
175
1
176
1
 91
1
178
0
145
0.0
170
1
171
1
172
0
173
1
174
0
175
1
176
1
 91
1
178
0
145
0.0
170
1
171
1
172
0
173
0
174
0
175
2
176
1
 91
49
178
0
145
0.0
  7
TEXTSTYLE_2
301
CELL_VALUE
 90
4
  1
Óòâ.
304
ACVALUE_END
170
4
140
2.5
171
1
172
0
173
1
174
0
175
1
176
1
 91
1
178
0
145
0.0
170
1
171
1
172
0
173
0
174
0
175
1
176
1
 91
49
178
0
145
0.0
  7
TEXTSTYLE_2
301
CELL_VALUE
 90
4
  1
Черкасова
304
ACVALUE_END
170
1
140
2.5
171
1
172
0
173
0
174
0
175
1
176
1
 91
33
178
0
145
0.0
301
CELL_VALUE
 90
4
  1
 
304
ACVALUE_END
170
1
140
2.8
171
1
172
0
173
0
174
0
175
1
176
1
 91
33
178
0
145
0.0
301
CELL_VALUE
 90
4
  1
 
304
ACVALUE_END
170
1
140
2.8
171
1
172
0
173
1
174
0
175
1
176
1
 91
1
178
0
145
0.0
170
1
171
1
172
0
173
1
174
0
175
1
176
1
 91
1
178
0
145
0.0
170
1
171
1
172
0
173
1
174
0
175
1
176
1
 91
1
178
0
145
0.0
170
1
171
1
172
0
173
1
174
0
175
1
176
1
 91
1
178
0
145
0.0
170
1
171
1
172
0
173
1
174
0
175
1
176
1
 91
1
178
0
145
0.0
170
1
171
1
172
0
173
1
174
0
175
1
176
1
 91
1
178
0
145
0.0
170
1
171
1
172
0
173
1
174
0
175
1
176
1
 91
1
178
0
145
0.0
170
1
  0
ACAD_TABLE
  5
27C
100
AcDbEntity
  8
0
 62
2
  6
CONTINUOUS
100
AcDbBlockReference
  2
*T2
 10
20.0
 20
292.0
 30
0.0
100
AcDbTable
342
       29F
343
206
 11
1.0
 21
0.0
 31
0.0
 90
22
 91
2
 92
3
 93
0
 94
0
 95
0
 96
0
141
7.0
141
7.0
142
70.0
142
14.0
142
53.0
171
1
172
0
173
0
174
0
175
1
176
2
 91
49
178
0
145
0.0
  7
TEXTSTYLE_3
301
CELL_VALUE
 90
4
  1
ЧЯ.2000-0Э3
304
ACVALUE_END
170
5
140
4.5
171
1
172
0
173
0
174
0
175
1
176
2
 91
33
178
0
145
0.0
301
CELL_VALUE
 90
4
  1
 
304
ACVALUE_END
170
1
140
2.8
171
1
172
0
173
0
174
0
175
1
176
1
 91
33
178
0
145
0.0
301
CELL_VALUE
 90
4
  1
 
304
ACVALUE_END
170
1
140
2.8
171
1
172
0
173
1
174
0
175
1
176
1
 91
1
178
0
145
0.0
170
1
171
1
172
0
173
1
174
0
175
1
176
1
 91
1
178
0
145
0.0
170
1
171
1
172
0
173
0
174
0
175
1
176
1
 91
33
178
0
145
0.0
301
CELL_VALUE
 90
4
  1
 
304
ACVALUE_END
170
1
140
2.8
  0
ACAD_TABLE
  5
27D
100
AcDbEntity
  8
0
 62
2
  6
CONTINUOUS
100
AcDbBlockReference
  2
*T3
 10
8.0
 20
5.0
 30
0.0
100
AcDbTable
342
       29F
343
207
 11
0.0
 21
1.0
 31
0.0
 90
22
 91
2
 92
5
 93
0
 94
0
 95
0
 96
0
141
5.0
141
7.0
142
25.0
142
35.0
142
25.0
142
25.0
142
35.0
171
1
172
0
173
0
174
0
175
1
176
1
 91
49
178
0
145
0.0
  7
TEXTSTYLE_2
301
CELL_VALUE
 90
4
  1
Èíâ. N ïîäë.
304
ACVALUE_END
170
5
140
2.5
171
1
172
0
173
0
174
0
175
1
176
1
 91
49
178
0
145
0.0
  7
TEXTSTYLE_2
301
CELL_VALUE
 90
4
  1
Ïîäï. è äàòà
304
ACVALUE_END
170
5
140
2.5
171
1
172
0
173
0
174
0
175
1
176
1
 91
49
178
0
145
0.0
  7
TEXTSTYLE_2
301
CELL_VALUE
 90
4
  1
Âçàì. èíâ. N
304
ACVALUE_END
170
5
140
2.5
171
1
172
0
173
0
174
0
175
1
176
1
 91
49
178
0
145
0.0
  7
TEXTSTYLE_2
301
CELL_VALUE
 90
4
  1
Èíâ. N ïîäë.
304
ACVALUE_END
170
5
140
2.5
171
1
172
0
173
0
174
0
175
1
176
1
 91
49
178
0
145
0.0
  7
TEXTSTYLE_2
301
CELL_VALUE
 90
4
  1
Ïîäï. è äàòà
304
ACVALUE_END
170
5
140
2.5
171
1
172
0
173
0
174
0
175
1
176
1
 91
33
178
0
145
0.0
301
CELL_VALUE
 90
4
  1
 
304
ACVALUE_END
170
1
140
2.8
171
1
172
0
173
0
174
0
175
1
176
1
 91
33
178
0
145
0.0
301
CELL_VALUE
 90
4
  1
 
304
ACVALUE_END
170
1
140
2.8
171
1
172
0
173
0
174
0
175
1
176
1
 91
33
178
0
145
0.0
301
CELL_VALUE
 90
4
  1
 
304
ACVALUE_END
170
1
140
2.8
171
1
172
0
173
0
174
0
175
1
176
1
 91
33
178
0
145
0.0
301
CELL_VALUE
 90
4
  1
 
304
ACVALUE_END
170
1
140
2.8
171
1
172
0
173
0
174
0
175
1
176
1
 91
33
178
0
145
0.0
301
CELL_VALUE
 90
4
  1
 
304
ACVALUE_END
170
1
140
2.8
  0
ACAD_TABLE
  5
27E
100
AcDbEntity
  8
0
 62
2
  6
CONTINUOUS
100
AcDbBlockReference
  2
*T4
 10
8.0
 20
172.0
 30
0.0
100
AcDbTable
342
       29F
343
208
 11
0.0
 21
1.0
 31
0.0
 90
22
 91
2
 92
2
 93
0
 94
0
 95
0
 96
0
141
5.0
141
7.0
142
60.0
142
60.0
171
1
172
0
173
0
174
0
175
1
176
1
 91
49
178
0
145
0.0
  7
TEXTSTYLE_2
301
CELL_VALUE
 90
4
  1
Ñïðàâ. N
304
ACVALUE_END
170
5
140
2.5
171
1
172
0
173
0
174
0
175
1
176
1
 91
49
178
0
145
0.0
  7
TEXTSTYLE_2
301
CELL_VALUE
 90
4
  1
Ïåðâ. ïðèìåí.
304
ACVALUE_END
170
5
140
2.5
171
1
172
0
173
0
174
0
175
1
176
1
 91
33
178
0
145
0.0
301
CELL_VALUE
 90
4
  1
 
304
ACVALUE_END
170
1
140
2.8
171
1
172
0
173
0
174
0
175
1
176
1
 91
49
178
0
145
0.0
  7
TEXTSTYLE_2
301
CELL_VALUE
 90
4
  1
 
304
ACVALUE_END
170
5
140
2.8
  0
ACAD_TABLE
  5
27F
100
AcDbEntity
  8
0
 62
2
  6
CONTINUOUS
100
AcDbBlockReference
  2
*T5
 10
3.0
 20
5.0
 30
0.0
100
AcDbTable
342
       29F
343
209
 11
0.0
 21
1.0
 31
0.0
 90
22
 91
1
 92
16
 93
0
 94
0
 95
0
 96
0
141
5.0
142
17.0
142
23.0
142
15.0
142
10.0
142
17.0
142
23.0
142
15.0
142
10.0
142
17.0
142
23.0
142
15.0
142
10.0
142
17.0
142
23.0
142
15.0
142
10.0
171
1
172
0
173
0
174
0
175
1
176
1
 91
33
178
0
145
0.0
301
CELL_VALUE
 90
4
  1
 
304
ACVALUE_END
170
1
140
2.8
171
1
172
0
173
0
174
0
175
1
176
1
 91
33
178
0
145
0.0
301
CELL_VALUE
 90
4
  1
 
304
ACVALUE_END
170
1
140
2.8
171
1
172
0
173
0
174
0
175
1
176
1
 91
33
178
0
145
0.0
301
CELL_VALUE
 90
4
  1
 
304
ACVALUE_END
170
1
140
2.8
171
1
172
0
173
0
174
0
175
1
176
1
 91
33
178
0
145
0.0
301
CELL_VALUE
 90
4
  1
 
304
ACVALUE_END
170
1
140
2.8
171
1
172
0
173
0
174
0
175
1
176
1
 91
33
178
0
145
0.0
301
CELL_VALUE
 90
4
  1
 
304
ACVALUE_END
170
1
140
2.8
171
1
172
0
173
0
174
0
175
1
176
1
 91
33
178
0
145
0.0
301
CELL_VALUE
 90
4
  1
 
304
ACVALUE_END
170
1
140
2.8
171
1
172
0
173
0
174
0
175
1
176
1
 91
33
178
0
145
0.0
301
CELL_VALUE
 90
4
  1
 
304
ACVALUE_END
170
1
140
2.8
171
1
172
0
173
0
174
0
175
1
176
1
 91
33
178
0
145
0.0
301
CELL_VALUE
 90
4
  1
 
304
ACVALUE_END
170
1
140
2.8
171
1
172
0
173
0
174
0
175
1
176
1
 91
33
178
0
145
0.0
301
CELL_VALUE
 90
4
  1
 
304
ACVALUE_END
170
1
140
2.8
171
1
172
0
173
0
174
0
175
1
176
1
 91
33
178
0
145
0.0
301
CELL_VALUE
 90
4
  1
 
304
ACVALUE_END
170
1
140
2.8
171
1
172
0
173
0
174
0
175
1
176
1
 91
33
178
0
145
0.0
301
CELL_VALUE
 90
4
  1
 
304
ACVALUE_END
170
1
140
2.8
171
1
172
0
173
0
174
0
175
1
176
1
 91
33
178
0
145
0.0
301
CELL_VALUE
 90
4
  1
 
304
ACVALUE_END
170
1
140
2.8
171
1
172
0
173
0
174
0
175
1
176
1
 91
33
178
0
145
0.0
301
CELL_VALUE
 90
4
  1
 
304
ACVALUE_END
170
1
140
2.8
171
1
172
0
173
0
174
0
175
1
176
1
 91
33
178
0
145
0.0
301
CELL_VALUE
 90
4
  1
 
304
ACVALUE_END
170
1
140
2.8
171
1
172
0
173
0
174
0
175
1
176
1
 91
33
178
0
145
0.0
301
CELL_VALUE
 90
4
  1
 
304
ACVALUE_END
170
1
140
2.8
171
1
172
0
173
0
174
0
175
1
176
1
 91
33
178
0
145
0.0
301
CELL_VALUE
 90
4
  1
 
304
ACVALUE_END
170
1
140
2.8
  0
LINE
  5
280
100
AcDbEntity
  8
0
100
AcDbLine
 62
2
  6
CONTINUOUS
 10
0.0
 20
0.0
 11
0.0
 21
297.0
  0
LINE
  5
281
100
AcDbEntity
  8
0
100
AcDbLine
 62
7
  6
CONTINUOUS
 10
20.0
 20
5.0
 11
20.0
 21
292.0
  0
LINE
  5
282
100
AcDbEntity
  8
0
100
AcDbLine
 62
2
  6
CONTINUOUS
 10
0.0
 20
0.0
 11
420.0
 21
0.0
  0
LINE
  5
283
100
AcDbEntity
  8
0
100
AcDbLine
 62
7
  6
CONTINUOUS
 10
20.0
 20
5.0
 11
415.0
 21
5.0
  0
LINE
  5
284
100
AcDbEntity
  8
0
100
AcDbLine
 62
7
  6
CONTINUOUS
 10
90.0
 20
271.0
 11
90.0
 21
278.0
  0
LINE
  5
285
100
AcDbEntity
  8
0
100
AcDbLine
 62
7
  6
CONTINUOUS
 10
295.0
 20
20.0
 11
415.0
 21
20.0
  0
LINE
  5
286
100
AcDbEntity
  8
0
100
AcDbLine
 62
7
  6
CONTINUOUS
 10
365.0
 20
25.0
 11
415.0
 21
25.0
  0
LINE
  5
287
100
AcDbEntity
  8
0
100
AcDbLine
 62
7
  6
CONTINUOUS
 10
230.0
 20
35.0
 11
295.0
 21
35.0
  0
LINE
  5
288
100
AcDbEntity
  8
0
100
AcDbLine
 62
7
  6
CONTINUOUS
 10
230.0
 20
40.0
 11
295.0
 21
40.0
  0
LINE
  5
289
100
AcDbEntity
  8
0
100
AcDbLine
 62
7
  6
CONTINUOUS
 10
365.0
 20
40.0
 11
415.0
 21
40.0
  0
LINE
  5
28A
100
AcDbEntity
  8
0
100
AcDbLine
 62
7
  6
CONTINUOUS
 10
295.0
 20
45.0
 11
415.0
 21
45.0
  0
LINE
  5
28B
100
AcDbEntity
  8
0
100
AcDbLine
 62
7
  6
CONTINUOUS
 10
230.0
 20
60.0
 11
415.0
 21
60.0
  0
LINE
  5
28C
100
AcDbEntity
  8
0
100
AcDbLine
 62
7
  6
CONTINUOUS
 10
295.0
 20
68.0
 11
415.0
 21
68.0
  0
LINE
  5
28D
100
AcDbEntity
  8
0
100
AcDbLine
 62
7
  6
CONTINUOUS
 10
230.0
 20
5.0
 11
230.0
 21
60.0
  0
LINE
  5
28E
100
AcDbEntity
  8
0
100
AcDbLine
 62
7
  6
CONTINUOUS
 10
237.0
 20
35.0
 11
237.0
 21
60.0
  0
LINE
  5
28F
100
AcDbEntity
  8
0
100
AcDbLine
 62
7
  6
CONTINUOUS
 10
247.0
 20
5.0
 11
247.0
 21
60.0
  0
LINE
  5
290
100
AcDbEntity
  8
0
100
AcDbLine
 62
7
  6
CONTINUOUS
 10
270.0
 20
5.0
 11
270.0
 21
60.0
  0
LINE
  5
291
100
AcDbEntity
  8
0
100
AcDbLine
 62
7
  6
CONTINUOUS
 10
285.0
 20
5.0
 11
285.0
 21
60.0
  0
LINE
  5
292
100
AcDbEntity
  8
0
100
AcDbLine
 62
7
  6
CONTINUOUS
 10
295.0
 20
5.0
 11
295.0
 21
68.0
  0
LINE
  5
293
100
AcDbEntity
  8
0
100
AcDbLine
 62
7
  6
CONTINUOUS
 10
20.0
 20
271.0
 11
90.0
 21
271.0
  0
LINE
  5
294
100
AcDbEntity
  8
0
100
AcDbLine
 62
7
  6
CONTINUOUS
 10
20.0
 20
292.0
 11
415.0
 21
292.0
  0
LINE
  5
295
100
AcDbEntity
  8
0
100
AcDbLine
 62
2
  6
CONTINUOUS
 10
0.0
 20
297.0
 11
420.0
 21
297.0
  0
LINE
  5
296
100
AcDbEntity
  8
0
100
AcDbLine
 62
7
  6
CONTINUOUS
 10
365.0
 20
5.0
 11
365.0
 21
45.0
  0
LINE
  5
297
100
AcDbEntity
  8
0
100
AcDbLine
 62
7
  6
CONTINUOUS
 10
380.0
 20
25.0
 11
380.0
 21
45.0
  0
LINE
  5
298
100
AcDbEntity
  8
0
100
AcDbLine
 62
7
  6
CONTINUOUS
 10
385.0
 20
20.0
 11
385.0
 21
25.0
  0
LINE
  5
299
100
AcDbEntity
  8
0
100
AcDbLine
 62
7
  6
CONTINUOUS
 10
397.0
 20
25.0
 11
397.0
 21
45.0
  0
LINE
  5
29A
100
AcDbEntity
  8
0
100
AcDbLine
 62
7
  6
CONTINUOUS
 10
415.0
 20
5.0
 11
415.0
 21
292.0
  0
LINE
  5
29B
100
AcDbEntity
  8
0
100
AcDbLine
 62
2
  6
CONTINUOUS
 10
420.0
 20
0.0
 11
420.0
 21
297.0
  0
ENDSEC
  0
SECTION
  2
OBJECTS
  0
DICTIONARY
  5
C
100
AcDbDictionary
280
0
281
1
  3
ACAD_GROUP
350
D
  3
ACAD_MLINESTYLE
350
17
  3
ACAD_LAYOUT
350
1A
  3
ACAD_PLOTSETTINGS
350
19
  3
ACAD_PLOTSTYLENAME
350
E
  3
ACAD_TABLESTYLE
350
       29C
  0
DICTIONARY
  5
D
102
{ACAD_REACTORS
330
C
102
}
100
AcDbDictionary
280
0
281
1
  0
ACDBDICTIONARYWDFLT
  5
E
102
{ACAD_REACTORS
330
C
102
}
100
AcDbDictionary
281
1
  3
Normal
350
F
100
AcDbDictionaryWithDefault
340
F
  0
DICTIONARY
  5
17
102
{ACAD_REACTORS
330
C
102
}
100
AcDbDictionary
280
0
281
1
  3
Standard
350
18
  0
DICTIONARY
  5
29C
330
C
100
AcDbDictionary
281
1
  3
Standard
350
       29F
  3
Standard1
350
       2A0
  0
DICTIONARY
  5
19
102
{ACAD_REACTORS
330
C
102
}
100
AcDbDictionary
281
1
  0
DICTIONARY
  5
1A
102
{ACAD_REACTORS
330
C
102
}
100
AcDbDictionary
281
1
  3
Model
350
29D
  3
Layout1
350
29E
  0
ACDBPLACEHOLDER
  5
F
102
{ACAD_REACTORS
330
E
102
}
  0
MLINESTYLE
  5
18
102
{ACAD_REACTORS
330
17
102
}
100
AcDbMlineStyle
  2
STANDARD
 70
0
  3

 62
256
 51
90.0
 52
90.0
 71
2
 49
0.5
 62
256
  6
BYLAYER
 49
-0.5
 62
256
  6
BYLAYER
  0
LAYOUT
  5
29D
102
{ACAD_REACTORS
330
1A
102
}
100
AcDbPlotSettings
  1

  2
none_device
  4
ISO_A3_(420.00_x_297.00_MM)
  6

 40
0.0
 41
0.0
 42
0.0
 43
0.0
 44
420.0
 45
297.0
 46
0.0
 47
0.0
 48
0.0
 49
0.0
140
0.0
141
0.0
142
1.0
143
1.0
 70
1024
 72
1
 73
0
 74
0
  7

 75
0
147
1.0
148
0.0
149
0.0
100
AcDbLayout
  1
Model
 70
0
 71
0
 10
0.0
 20
0.0
 11
420.0
 21
297.0
 12
0.0
 22
0.0
 32
0.0
 14
0.0
 24
0.0
 34
0.0
 15
0.0
 25
0.0
 35
0.0
146
0.0
 13
0.0
 23
0.0
 33
0.0
 16
1.0
 26
0.0
 36
0.0
 17
0.0
 27
1.0
 37
0.0
 76
0
330
203
345
0
346
0
  0
LAYOUT
  5
29E
102
{ACAD_REACTORS
330
1A
102
}
100
AcDbPlotSettings
  1

  2
none_device
  4
ISO_A3_(420.00_x_297.00_MM)
  6

 40
0.0
 41
0.0
 42
0.0
 43
0.0
 44
420.0
 45
297.0
 46
0.0
 47
0.0
 48
0.0
 49
0.0
140
0.0
141
0.0
142
1.0
143
1.0
 70
0
 72
1
 73
0
 74
0
  7

 75
0
147
1.0
148
0.0
149
0.0
100
AcDbLayout
  1
Layout1
 70
0
 71
1
 10
0.0
 20
0.0
 11
420.0
 21
297.0
 12
0.0
 22
0.0
 32
0.0
 14
0.0
 24
0.0
 34
0.0
 15
0.0
 25
0.0
 35
0.0
146
0.0
 13
0.0
 23
0.0
 33
0.0
 16
1.0
 26
0.0
 36
0.0
 17
0.0
 27
1.0
 37
0.0
 76
0
330
204
345
0
346
0
  0
TABLESTYLE
  5
29F
102
{ACAD_REACTORS
330
29C
330
27B
330
27C
330
27D
330
27E
330
27F
102
}
330
29C
100
AcDbTableStyle
  3
Standard
 70
0
 71
0
 40
0.06
 41
0.06
280
1
281
1
  7
Standard
140
0.18
170
1
 62
0
 63
7
283
0
  7
Standard
140
0.18
170
1
 62
0
 63
7
283
0
  7
Standard
140
0.18
170
1
 62
0
 63
7
283
0
  0
TABLESTYLE
  5
2A0
102
{ACAD_REACTORS
330
29C
102
}
330
29C
100
AcDbTableStyle
  3
Standard1
 70
1
 71
0
 40
0.06
 41
0.06
280
1
281
1
  7
Standard
140
0.18
170
1
 62
0
 63
7
283
0
  7
Standard
140
0.18
170
1
 62
0
 63
7
283
0
  7
Standard
140
0.18
170
1
 62
0
 63
7
283
0
  0
ENDSEC
  0
EOF
